<svg width="564" height="733" viewBox="0 0 564 733" fill="none" xmlns="http://www.w3.org/2000/svg">
<rect x="518.213" y="118" width="24" height="24" transform="rotate(45 518.213 118)" fill="#FB762F"/>
<rect x="539.971" y="479" width="24" height="24" rx="12" transform="rotate(45 539.971 479)" fill="#42C2DE"/>
<path d="M252.5 0L257.497 13.5033L271 18.5L257.497 23.4967L252.5 37L247.503 23.4967L234 18.5L247.503 13.5033L252.5 0Z" fill="#FFC700"/>
<path d="M18.5 624L23.4967 637.503L37 642.5L23.4967 647.497L18.5 661L13.5033 647.497L0 642.5L13.5033 637.503L18.5 624Z" fill="#FB762F"/>
<path d="M556.896 635.017C557.434 634.892 557.972 635.226 558.097 635.764L560.141 644.529C560.267 645.067 559.932 645.604 559.394 645.73C558.857 645.855 558.319 645.521 558.193 644.983L556.377 637.192L548.586 639.009C548.048 639.134 547.51 638.8 547.385 638.262C547.259 637.724 547.594 637.186 548.132 637.061L556.896 635.017ZM359.236 679.722C433.009 697.656 482.293 686.492 513.096 670.938C528.507 663.156 539.317 654.263 546.267 647.326C549.742 643.858 552.252 640.879 553.89 638.773C554.708 637.721 555.309 636.886 555.702 636.318C555.899 636.035 556.044 635.817 556.139 635.673C556.186 635.6 556.221 635.546 556.244 635.511C556.255 635.494 556.263 635.481 556.268 635.473C556.271 635.469 556.273 635.466 556.274 635.464C556.274 635.463 556.274 635.463 556.275 635.463C556.275 635.463 556.274 635.463 557.124 635.991C557.973 636.519 557.972 636.52 557.971 636.521C557.971 636.522 557.97 636.524 557.969 636.525C557.967 636.529 557.964 636.533 557.96 636.539C557.953 636.55 557.943 636.567 557.929 636.588C557.903 636.63 557.863 636.691 557.811 636.77C557.707 636.928 557.553 637.16 557.346 637.458C556.932 638.054 556.311 638.918 555.469 640.001C553.785 642.167 551.22 645.209 547.68 648.742C540.601 655.807 529.622 664.834 513.998 672.723C482.729 688.513 432.952 699.7 358.764 681.665L359.236 679.722Z" fill="#3A7AB6"/>
<path d="M176.248 50.1637C176.615 49.7506 176.577 49.1186 176.164 48.752L169.432 42.7786C169.019 42.4121 168.387 42.4498 168.02 42.8629C167.654 43.276 167.691 43.9081 168.104 44.2746L174.088 49.5843L168.779 55.5682C168.412 55.9813 168.45 56.6134 168.863 56.9799C169.276 57.3465 169.908 57.3087 170.275 56.8956L176.248 50.1637ZM175.44 48.5018C141.75 50.5132 127.974 62.5024 123.983 75.3279C122.006 81.6782 122.482 88.1002 123.984 93.3679C125.474 98.5978 128.023 102.844 130.364 104.772L131.636 103.228C129.727 101.656 127.338 97.8398 125.907 92.8196C124.487 87.8374 124.056 81.8219 125.892 75.9222C129.526 64.2476 142.251 52.4868 175.56 50.4982L175.44 48.5018ZM130.364 104.772C134.673 108.32 138.722 109.658 141.712 108.354C144.782 107.016 146.006 103.259 145.494 98.3953L143.505 98.6047C143.994 103.241 142.718 105.734 140.913 106.521C139.028 107.342 135.827 106.68 131.636 103.228L130.364 104.772ZM145.494 98.3953C145.343 96.9597 144.611 95.4621 143.545 94.0277C142.47 92.5801 141.003 91.1256 139.27 89.7676C135.807 87.0536 131.198 84.6585 126.312 83.466C121.428 82.274 116.186 82.2663 111.535 84.4461C106.857 86.6383 102.92 90.9762 100.55 98.1879L102.45 98.8122C104.68 92.0239 108.293 88.1742 112.384 86.2571C116.501 84.3274 121.247 84.2886 125.838 85.409C130.427 86.5291 134.781 88.7902 138.036 91.3418C139.663 92.6167 140.994 93.9472 141.94 95.2204C142.895 96.5067 143.407 97.6654 143.505 98.6047L145.494 98.3953ZM100.55 98.1879C98.184 105.389 98.0379 113.934 99.3161 122.976C100.596 132.028 103.312 141.645 106.736 151.03C113.582 169.798 123.292 187.738 130.156 198.536L131.844 197.464C125.041 186.762 115.402 168.952 108.614 150.345C105.221 141.042 102.55 131.566 101.296 122.696C100.041 113.816 100.216 105.611 102.45 98.8122L100.55 98.1879Z" fill="#FFAF83"/>
</svg>
